<svg width="16" height="9" viewBox="0 0 16 9" fill="none" xmlns="http://www.w3.org/2000/svg">
<path d="M-8.67248e-06 8.15161V7.74516C0.376335 7.73011 0.65483 7.7 0.835475 7.65484C1.02365 7.60215 1.14784 7.50806 1.20806 7.37258C1.26827 7.2371 1.29838 7.03763 1.29838 6.77419V1.53548C1.29838 1.27204 1.26827 1.07258 1.20806 0.937095C1.14784 0.801612 1.02365 0.707526 0.835475 0.654838C0.65483 0.602149 0.376335 0.572041 -8.67248e-06 0.564514V0.158063C0.218271 0.16559 0.474185 0.173117 0.767733 0.180644C1.06881 0.180644 1.4301 0.180644 1.8516 0.180644C2.06236 0.180644 2.27311 0.180644 2.48386 0.180644C2.70214 0.173117 2.90537 0.169353 3.09354 0.169353C3.28171 0.161826 3.43601 0.158063 3.55644 0.158063C4.97902 0.158063 6.0516 0.481719 6.77418 1.12903C7.50429 1.77634 7.86935 2.72849 7.86935 3.98548C7.86935 4.86613 7.69623 5.61882 7.34999 6.24355C7.01128 6.86075 6.51451 7.33494 5.85967 7.66613C5.21236 7.98978 4.42956 8.15161 3.51128 8.15161C3.32311 8.15161 3.08978 8.14785 2.81128 8.14032C2.54031 8.12527 2.22418 8.11774 1.86289 8.11774C1.5016 8.11774 1.15537 8.1215 0.824185 8.12903C0.500529 8.13656 0.225798 8.14408 -8.67248e-06 8.15161ZM3.40967 7.75645C4.53117 7.75645 5.3516 7.46667 5.87096 6.8871C6.39031 6.30753 6.64999 5.39301 6.64999 4.14355C6.64999 2.87903 6.39408 1.96451 5.88225 1.4C5.37042 0.835482 4.54999 0.553224 3.42096 0.553224H2.4387V6.79677C2.4387 7.06774 2.46128 7.27097 2.50644 7.40645C2.55913 7.54193 2.65322 7.63602 2.7887 7.68871C2.93171 7.73387 3.1387 7.75645 3.40967 7.75645ZM12.586 8.30968C12.1494 8.30968 11.7806 8.26451 11.4795 8.17419C11.1784 8.08387 10.9301 7.99731 10.7344 7.91451C10.5462 7.82419 10.3919 7.77903 10.2715 7.77903C10.1736 7.77903 10.0946 7.82043 10.0344 7.90322C9.98167 7.97849 9.94403 8.09516 9.92145 8.25322H9.49242C9.50747 8.08763 9.51876 7.88817 9.52629 7.65484C9.53382 7.41398 9.53758 7.10537 9.53758 6.72903C9.54511 6.35269 9.54887 5.88226 9.54887 5.31774H9.96661C10.0268 6.11559 10.2715 6.74408 10.7005 7.20322C11.137 7.66236 11.7053 7.89193 12.4053 7.89193C12.9171 7.89193 13.3236 7.76021 13.6247 7.49677C13.9258 7.23333 14.0763 6.8758 14.0763 6.42419C14.0763 6.1457 14.0123 5.89731 13.8844 5.67903C13.7564 5.46075 13.5456 5.26129 13.2521 5.08064C12.9661 4.9 12.586 4.72312 12.1118 4.55C11.5322 4.33172 11.0618 4.10215 10.7005 3.86129C10.3467 3.62043 10.0833 3.35322 9.91016 3.05968C9.74457 2.7586 9.66177 2.42365 9.66177 2.05484C9.66177 1.63333 9.75586 1.26828 9.94403 0.959676C10.1397 0.651074 10.4107 0.413977 10.7569 0.248386C11.1107 0.0827943 11.5247 -1.3113e-06 11.9989 -1.3113e-06C12.3903 -1.3113e-06 12.7139 0.0451599 12.9698 0.135482C13.2333 0.218278 13.4516 0.304837 13.6247 0.39516C13.7978 0.477955 13.9446 0.519353 14.065 0.519353C14.1628 0.519353 14.2419 0.481719 14.3021 0.40645C14.3623 0.331181 14.4037 0.214515 14.4263 0.0564502H14.8553C14.8403 0.222041 14.829 0.40645 14.8215 0.609676C14.8139 0.812902 14.8064 1.06882 14.7989 1.37742C14.7989 1.68602 14.7989 2.08118 14.7989 2.5629H14.3698C14.3096 1.91559 14.0801 1.39624 13.6811 1.00484C13.2822 0.613439 12.7817 0.41774 12.1795 0.41774C11.7053 0.41774 11.3365 0.534407 11.0731 0.767741C10.8096 1.00107 10.6779 1.3172 10.6779 1.71613C10.6779 1.97957 10.7456 2.21667 10.8811 2.42742C11.0241 2.63064 11.2499 2.82634 11.5585 3.01451C11.8747 3.20269 12.2924 3.39462 12.8118 3.59032C13.6698 3.91398 14.2833 4.2715 14.6521 4.6629C15.0209 5.04677 15.2053 5.52473 15.2053 6.09677C15.2053 6.77419 14.9682 7.31236 14.494 7.71129C14.0274 8.11021 13.3913 8.30968 12.586 8.30968Z" fill="#333333"/>
</svg>
